<mxfile host="app.diagrams.net" modified="2024-04-29T10:13:17.364Z" agent="Mozilla/5.0 (X11; Linux x86_64) AppleWebKit/537.36 (KHTML, like Gecko) Chrome/123.0.0.0 Safari/537.36" version="24.3.1" etag="kXJOxAHFRtZ76UtKHRTT" type="github">
  <diagram name="Page-1" id="i1Eosfi7nMWxyE2yRebz">
    <mxGraphModel>
      <root>
        <mxCell id="0" />
        <mxCell id="1" parent="0" />
      </root>
    </mxGraphModel>
  </diagram>
</mxfile>
